<svg width="1552" height="880" viewBox="0 0 1552 880" fill="none" xmlns="http://www.w3.org/2000/svg">
<path d="M776.13 879.597C1204.59 879.597 1552 682.567 1552 439.668C1552 196.769 1204.59 0 776.13 0C347.669 0 0 197.03 0 439.929C0 682.828 347.408 879.597 776.13 879.597Z" fill="#EEAF9D"/>
<path d="M1551.74 439.929C1551.74 439.929 1204.85 760.494 775.869 760.494C346.887 760.494 0.520996 439.929 0.520996 439.929C0.520996 439.929 347.408 119.365 776.391 119.365C1205.37 119.365 1551.74 439.929 1551.74 439.929Z" fill="#EFECE2"/>
<path d="M776.13 763.881C954.916 763.881 1100.08 618.976 1100.08 439.929C1100.08 260.882 955.177 115.977 776.13 115.977C597.083 115.977 452.178 260.882 452.178 439.929C452.178 618.976 597.083 763.881 776.13 763.881Z" fill="#808C9F"/>
<path d="M1550 439.668C1550 560.082 1463.87 669.526 1323.75 748.98C1183.69 828.4 990.08 877.597 776.13 877.597C562.05 877.597 368.37 828.465 228.28 749.11C88.1307 669.721 2 560.342 2 439.929C2 319.515 88.1956 210.071 228.378 130.617C368.501 51.1971 562.181 2 776.13 2C990.08 2 1183.7 51.1321 1323.75 130.487C1463.87 209.876 1550 319.255 1550 439.668Z" fill="#EEAF9D" stroke="black" stroke-width="4"/>
<path d="M3.49353 439.931C4.10686 439.378 4.89305 438.674 5.84902 437.825C8.48399 435.487 12.4088 432.053 17.5587 427.68C27.8586 418.934 43.0585 406.433 62.6413 391.429C101.809 361.419 158.5 321.401 228.579 281.384C368.763 201.335 562.38 121.365 776.391 121.365C990.401 121.365 1183.89 201.335 1323.94 281.384C1393.95 321.401 1450.58 361.419 1489.7 391.428C1509.26 406.432 1524.44 418.933 1534.72 427.679C1539.87 432.052 1543.78 435.486 1546.42 437.824C1547.37 438.672 1548.15 439.376 1548.77 439.928C1548.15 440.481 1547.37 441.185 1546.41 442.034C1543.78 444.372 1539.85 447.806 1534.7 452.179C1524.4 460.925 1509.2 473.426 1489.62 488.43C1450.45 518.44 1393.76 558.457 1323.68 598.475C1183.5 678.524 989.88 758.494 775.869 758.494C561.859 758.494 368.372 678.524 228.319 598.475C158.305 558.458 101.679 518.44 62.5608 488.431C43.0025 473.427 27.823 460.926 17.5373 452.18C12.3945 447.807 8.47538 444.373 5.84424 442.035C4.89035 441.187 4.10575 440.483 3.49353 439.931Z" fill="white" stroke="black" stroke-width="4"/>
<path d="M1094 440C1094 615.757 951.501 758 776 758C600.242 758 458 615.758 458 440C458 264.242 600.242 122 776 122C951.758 122 1094 264.242 1094 440Z" fill="#808C9F" stroke="black" stroke-width="4"/>
<path d="M776.13 620.278C875.688 620.278 956.48 539.485 956.48 439.928C956.48 340.371 875.688 259.578 776.13 259.578C676.573 259.578 595.78 340.371 595.78 439.928C595.78 539.485 676.573 620.278 776.13 620.278Z" fill="black"/>
<path d="M638.868 371.124C638.868 383.572 628.556 393.883 616.109 393.883C603.647 393.883 593.35 383.819 593.35 371.124C593.35 358.677 603.661 348.365 616.109 348.365C628.556 348.365 638.868 358.677 638.868 371.124Z" fill="white" stroke="black" stroke-width="4"/>
</svg>
